<svg width="18" height="20" viewBox="0 0 18 20" fill="none" xmlns="http://www.w3.org/2000/svg">
<path d="M8.28063 12.4395C8.31503 12.7573 8.59576 12.9938 8.92304 12.9938C8.94529 12.9938 8.9677 12.9927 8.99029 12.9905C9.34551 12.9554 9.60374 12.6519 9.56701 12.3126L9.26886 9.55617C9.23213 9.21676 8.9145 8.97026 8.5592 9.00526C8.20398 9.04035 7.94575 9.34385 7.98248 9.68317L8.28063 12.4395Z" fill="white"/>
<path d="M12.3268 12.9905C12.3494 12.9927 12.3718 12.9938 12.394 12.9938C12.7212 12.9938 13.0021 12.7573 13.0365 12.4395L13.3346 9.68309C13.3713 9.34368 13.1131 9.04018 12.7579 9.00518C12.4026 8.97067 12.0849 9.21676 12.0482 9.55609L11.7501 12.3125C11.7133 12.6519 11.9715 12.9554 12.3268 12.9905Z" fill="white"/>
<path d="M7.32041 15.6755C6.21673 15.6755 5.31885 16.5332 5.31885 17.5875C5.31885 18.6421 6.21673 19.5 7.32041 19.5C8.4241 19.5 9.32206 18.6421 9.32206 17.5875C9.32206 16.5332 8.4241 15.6755 7.32041 15.6755ZM7.32041 18.2645C6.92984 18.2645 6.61213 17.9608 6.61213 17.5874C6.61213 17.2144 6.92984 16.9109 7.32041 16.9109C7.71098 16.9109 8.02879 17.2144 8.02879 17.5874C8.02879 17.9608 7.71098 18.2645 7.32041 18.2645Z" fill="white"/>
<path d="M13.9973 15.6755C12.8936 15.6755 11.9956 16.5332 11.9956 17.5875C11.9956 18.6421 12.8936 19.5 13.9973 19.5C15.101 19.5 15.9991 18.6421 15.9991 17.5875C15.9991 16.5332 15.101 15.6755 13.9973 15.6755ZM13.9973 18.2645C13.6067 18.2645 13.2889 17.9608 13.2889 17.5874C13.2889 17.2144 13.6067 16.9109 13.9973 16.9109C14.3879 16.9109 14.7058 17.2144 14.7058 17.5874C14.7058 17.9608 14.3879 18.2645 13.9973 18.2645Z" fill="white"/>
<path d="M17.8649 6.94465C17.7424 6.79336 17.5535 6.70474 17.3533 6.70474H4.46406L3.92286 4.71648C3.84871 4.44428 3.59144 4.25427 3.297 4.25427H0.64664C0.289522 4.25427 0 4.53084 0 4.87197C0 5.21311 0.289522 5.48968 0.64664 5.48968H2.79702L3.33339 7.4599C3.33632 7.47225 3.33968 7.48452 3.34339 7.49663L5.33935 14.8285C5.4135 15.1007 5.67077 15.2907 5.96521 15.2907H15.3522C15.6466 15.2907 15.9039 15.1007 15.978 14.8285L17.9793 7.47785C18.0295 7.29287 17.9873 7.09587 17.8649 6.94465ZM14.8521 14.0554H6.46511L4.80031 7.94014H16.5169L14.8521 14.0554Z" fill="white"/>
<path d="M7.98477 3.23418L11.7719 3.23435L10.7832 4.17894C10.5306 4.42017 10.5306 4.8113 10.7832 5.05245C10.9094 5.17303 11.0749 5.2334 11.2404 5.2334C11.4058 5.2334 11.5714 5.17311 11.6976 5.05245L13.7895 3.05414C14.0421 2.81291 14.0421 2.42178 13.7895 2.18063L11.6961 0.180925C11.4436 -0.0603083 11.0342 -0.0603083 10.7816 0.180925C10.5291 0.422158 10.5291 0.813287 10.7816 1.05452L11.7704 1.99903L7.98477 1.99886C7.62766 1.99886 7.33813 2.27543 7.33813 2.61656C7.33822 2.95762 7.62766 3.23418 7.98477 3.23418Z" fill="white"/>
</svg>
