<svg width="66" height="65" viewBox="0 0 66 65" fill="none" xmlns="http://www.w3.org/2000/svg">
<path d="M34.5641 0L24.7698 9.87484C23.6924 10.953 23.7484 12.2478 24.434 13.6694L24.7138 14.2746L24.2801 14.6828L20.978 17.8214L24.0142 20.8616L27.1204 17.5259L27.5262 17.1036L28.1138 17.3711C29.611 18.117 30.9962 18.1733 31.9896 17.174L41.8118 7.2865L40.3847 5.85369L33.9904 12.276L32.6472 10.8967L39.0135 4.48844L37.4884 2.93599L31.1221 9.36815L29.7649 8.0029L36.1312 1.57215L34.5641 0ZM1.23134 0.388463C0.429611 1.67208 0.306483 3.32023 0.766814 5.25551C1.3083 7.55251 2.6809 10.2126 4.60197 12.7264C8.42874 17.7651 11.6035 19.4963 16.7525 20.4393L17.0883 20.4956C18.9912 22.7617 20.8941 25.0136 22.7969 27.2797H27.9879L1.23134 0.388463ZM16.3467 22.255L11.0662 27.2797H18.0117L19.3689 25.83L16.3467 22.255ZM0.850765 29.2501V38.1876L3.16082 31.2206H36.327L38.6357 38.1876V29.2501H0.850765ZM4.97696 33.7541L3.57777 37.9765H9.87969L11.2817 33.7541H4.97696ZM13.9261 33.7541L12.5269 37.9765H18.4875V33.7541H13.9261ZM21.006 33.7541V37.9765H26.9665L25.5673 33.7541H21.006ZM28.1978 33.7541L29.597 37.9765H35.9073L34.5081 33.7541H28.1978ZM41.1542 34.0074V60.4961H52.2078C52.7954 57.9345 55.0901 55.9922 57.8045 55.9922C60.5189 55.9922 62.8136 57.9345 63.4012 60.4961H65.5V51.4882L57.6366 49.5178H43.1131V37.9765H51.746L50.7806 35.8653L41.1542 34.0074ZM0.850765 40.5099V56.5833L6.75112 60.4961H8.8289C9.40817 57.9345 11.7014 55.9922 14.4298 55.9922C17.1442 55.9922 19.4389 57.9345 20.0266 60.4961H38.6357V40.5099H36.6768V51.7697H2.80962V40.5099H0.850765ZM45.6316 40.5099V46.9843H55.7617L52.5436 40.5099H45.6316ZM6.30758 43.1841L8.54627 45.4361H10.785L13.0307 43.1841H6.30758ZM5.18823 46.9843V49.5178H34.2982V46.9843H5.18823ZM14.4298 58.5256C12.6249 58.5256 11.1977 59.9612 11.1977 61.7628C11.1977 63.5644 12.6249 65 14.4298 65C16.2208 65 17.648 63.5644 17.648 61.7628C17.648 59.9612 16.2208 58.5256 14.4298 58.5256ZM57.8045 58.5256C56.0135 58.5256 54.5864 59.9612 54.5864 61.7628C54.5864 63.5644 56.0135 65 57.8045 65C59.5954 65 61.0226 63.5644 61.0226 61.7628C61.0226 59.9612 59.5954 58.5256 57.8045 58.5256Z" fill="#9DC471"/>
</svg>
