<svg width="369" height="185" viewBox="0 0 369 185" fill="none" xmlns="http://www.w3.org/2000/svg">
<circle cx="50.2852" cy="75.1175" r="5.58725" fill="#9DC471"/>
<circle cx="50.2852" cy="109.883" r="5.58725" fill="#9DC471"/>
<circle cx="50.2852" cy="144.648" r="5.58725" fill="#9DC471"/>
<circle cx="50.2852" cy="179.413" r="5.58725" fill="#9DC471"/>
<circle cx="27.9362" cy="75.1175" r="5.58725" fill="#9DC471"/>
<circle cx="27.9362" cy="109.883" r="5.58725" fill="#9DC471"/>
<circle cx="27.9362" cy="144.648" r="5.58725" fill="#9DC471"/>
<circle cx="27.9362" cy="179.413" r="5.58725" fill="#9DC471"/>
<circle cx="5.58725" cy="75.1175" r="5.58725" fill="#9DC471"/>
<circle cx="5.58725" cy="109.883" r="5.58725" fill="#9DC471"/>
<circle cx="5.58725" cy="144.648" r="5.58725" fill="#9DC471"/>
<circle cx="5.58725" cy="179.413" r="5.58725" fill="#9DC471"/>
<circle cx="5.58725" cy="57.735" r="5.58725" fill="#9DC471"/>
<circle cx="5.58725" cy="92.5001" r="5.58725" fill="#9DC471"/>
<circle cx="5.58725" cy="127.265" r="5.58725" fill="#9DC471"/>
<circle cx="5.58725" cy="162.03" r="5.58725" fill="#9DC471"/>
<circle cx="27.9362" cy="57.735" r="5.58725" fill="#9DC471"/>
<circle cx="27.9362" cy="92.5001" r="5.58725" fill="#9DC471"/>
<circle cx="27.9362" cy="127.265" r="5.58725" fill="#9DC471"/>
<circle cx="27.9362" cy="162.03" r="5.58725" fill="#9DC471"/>
<circle cx="50.2852" cy="57.735" r="5.58725" fill="#9DC471"/>
<circle cx="50.2852" cy="92.5001" r="5.58725" fill="#9DC471"/>
<circle cx="50.2852" cy="127.265" r="5.58725" fill="#9DC471"/>
<circle cx="50.2852" cy="162.03" r="5.58725" fill="#9DC471"/>
<circle cx="5.58725" cy="40.3524" r="5.58725" fill="#9DC471"/>
<circle cx="27.9362" cy="40.3524" r="5.58725" fill="#9DC471"/>
<circle cx="50.2852" cy="40.3524" r="5.58725" fill="#9DC471"/>
<circle cx="5.58725" cy="22.9698" r="5.58725" fill="#9DC471"/>
<circle cx="94.9832" cy="22.9698" r="5.58725" fill="#9DC471"/>
<circle cx="94.9832" cy="40.3524" r="5.58725" fill="#9DC471"/>
<circle cx="5.58725" cy="5.58725" r="5.58725" fill="#9DC471"/>
<circle cx="5.58725" cy="5.58725" r="5.58725" fill="#9DC471"/>
<circle cx="94.9832" cy="5.58725" r="5.58725" fill="#9DC471"/>
<circle cx="94.9832" cy="5.58725" r="5.58725" fill="#9DC471"/>
<circle cx="27.9362" cy="22.9698" r="5.58725" fill="#9DC471"/>
<circle cx="27.9362" cy="22.9698" r="5.58725" fill="#9DC471"/>
<circle cx="117.332" cy="22.9698" r="5.58725" fill="#9DC471"/>
<circle cx="117.332" cy="22.9698" r="5.58725" fill="#9DC471"/>
<circle cx="184.379" cy="22.9698" r="5.58725" fill="#9DC471"/>
<circle cx="184.379" cy="22.9698" r="5.58725" fill="#9DC471"/>
<circle cx="340.936" cy="22.9698" r="5.58725" fill="#9DC471"/>
<circle cx="251.426" cy="22.9698" r="5.58725" fill="#9DC471"/>
<circle cx="251.426" cy="22.9698" r="5.58725" fill="#9DC471"/>
<circle cx="117.332" cy="40.3524" r="5.58725" fill="#9DC471"/>
<circle cx="117.332" cy="40.3524" r="5.58725" fill="#9DC471"/>
<circle cx="184.379" cy="40.3524" r="5.58725" fill="#9DC471"/>
<circle cx="184.379" cy="40.3524" r="5.58725" fill="#9DC471"/>
<circle cx="340.936" cy="40.3524" r="5.58725" fill="#9DC471"/>
<circle cx="251.426" cy="40.3524" r="5.58725" fill="#9DC471"/>
<circle cx="251.426" cy="40.3524" r="5.58725" fill="#9DC471"/>
<circle cx="27.9362" cy="5.58725" r="5.58725" fill="#9DC471"/>
<circle cx="27.9362" cy="5.58725" r="5.58725" fill="#9DC471"/>
<circle cx="117.332" cy="5.58725" r="5.58725" fill="#9DC471"/>
<circle cx="117.332" cy="5.58725" r="5.58725" fill="#9DC471"/>
<circle cx="184.379" cy="5.58725" r="5.58725" fill="#9DC471"/>
<circle cx="184.379" cy="5.58725" r="5.58725" fill="#9DC471"/>
<circle cx="340.936" cy="5.58725" r="5.58725" fill="#9DC471"/>
<circle cx="251.426" cy="5.58725" r="5.58725" fill="#9DC471"/>
<circle cx="251.426" cy="5.58725" r="5.58725" fill="#9DC471"/>
<circle cx="50.2852" cy="22.9698" r="5.58725" fill="#9DC471"/>
<circle cx="50.2852" cy="22.9698" r="5.58725" fill="#9DC471"/>
<circle cx="139.681" cy="22.9698" r="5.58725" fill="#9DC471"/>
<circle cx="139.681" cy="22.9698" r="5.58725" fill="#9DC471"/>
<circle cx="206.728" cy="22.9698" r="5.58725" fill="#9DC471"/>
<circle cx="206.728" cy="22.9698" r="5.58725" fill="#9DC471"/>
<circle cx="363.285" cy="22.9698" r="5.58725" fill="#9DC471"/>
<circle cx="273.775" cy="22.9698" r="5.58725" fill="#9DC471"/>
<circle cx="139.681" cy="40.3524" r="5.58725" fill="#9DC471"/>
<circle cx="206.728" cy="40.3524" r="5.58725" fill="#9DC471"/>
<circle cx="363.285" cy="40.3524" r="5.58725" fill="#9DC471"/>
<circle cx="273.775" cy="40.3524" r="5.58725" fill="#9DC471"/>
<circle cx="50.2852" cy="5.58725" r="5.58725" fill="#9DC471"/>
<circle cx="139.681" cy="5.58725" r="5.58725" fill="#9DC471"/>
<circle cx="206.728" cy="5.58725" r="5.58725" fill="#9DC471"/>
<circle cx="363.285" cy="5.58725" r="5.58725" fill="#9DC471"/>
<circle cx="273.775" cy="5.58725" r="5.58725" fill="#9DC471"/>
<circle cx="72.6342" cy="22.9698" r="5.58725" fill="#9DC471"/>
<circle cx="72.6342" cy="40.3524" r="5.58725" fill="#9DC471"/>
<circle cx="162.03" cy="22.9698" r="5.58725" fill="#9DC471"/>
<circle cx="318.587" cy="22.9698" r="5.58725" fill="#9DC471"/>
<circle cx="229.077" cy="22.9698" r="5.58725" fill="#9DC471"/>
<circle cx="296.124" cy="22.9698" r="5.58725" fill="#9DC471"/>
<circle cx="162.03" cy="40.3524" r="5.58725" fill="#9DC471"/>
<circle cx="318.587" cy="40.3524" r="5.58725" fill="#9DC471"/>
<circle cx="229.077" cy="40.3524" r="5.58725" fill="#9DC471"/>
<circle cx="296.124" cy="40.3524" r="5.58725" fill="#9DC471"/>
<circle cx="72.6342" cy="5.58725" r="5.58725" fill="#9DC471"/>
<circle cx="162.03" cy="5.58725" r="5.58725" fill="#9DC471"/>
<circle cx="318.587" cy="5.58725" r="5.58725" fill="#9DC471"/>
<circle cx="229.077" cy="5.58725" r="5.58725" fill="#9DC471"/>
<circle cx="296.124" cy="5.58725" r="5.58725" fill="#9DC471"/>
</svg>
