<svg width="27" height="27" viewBox="0 0 27 27" fill="none" xmlns="http://www.w3.org/2000/svg">
<path d="M24.3374 10.4617H2.62036C2.14054 10.4622 1.68053 10.653 1.34125 10.9923C1.00197 11.3316 0.811132 11.7916 0.810608 12.2714V13.4779C0.804642 15.3918 1.23638 17.2818 2.07283 19.0033C2.90927 20.7248 4.12826 22.2322 5.63661 23.4104V24.3364C5.63714 24.8163 5.82798 25.2763 6.16726 25.6155C6.50654 25.9548 6.96655 26.1457 7.44637 26.1462H19.5114C19.9912 26.1457 20.4512 25.9548 20.7905 25.6155C21.1298 25.2763 21.3206 24.8163 21.3211 24.3364V23.4104C22.8295 22.2322 24.0485 20.7248 24.8849 19.0033C25.7214 17.2818 26.1531 15.3918 26.1471 13.4779V12.2714C26.1466 11.7916 25.9558 11.3316 25.6165 10.9923C25.2772 10.653 24.8172 10.4622 24.3374 10.4617ZM24.9406 13.4779C24.9456 15.2604 24.5312 17.019 23.7311 18.6118C22.9309 20.2045 21.7673 21.5868 20.3344 22.6469C20.2446 22.7155 20.1762 22.8083 20.1373 22.9144C20.0984 23.0206 20.0905 23.1356 20.1146 23.246V24.3364C20.1145 24.4964 20.0509 24.6498 19.9378 24.7629C19.8247 24.876 19.6713 24.9396 19.5114 24.9397H7.44637C7.28641 24.9396 7.13303 24.876 7.01992 24.7629C6.90682 24.6498 6.84322 24.4964 6.84312 24.3364V23.2908C6.87552 23.1738 6.87188 23.0498 6.83268 22.9349C6.79348 22.82 6.72053 22.7196 6.62338 22.6469C5.19042 21.5868 4.02686 20.2045 3.2267 18.6118C2.42653 17.019 2.01218 15.2604 2.01711 13.4779V12.2714C2.01722 12.1115 2.08081 11.9581 2.19392 11.845C2.30703 11.7319 2.4604 11.6683 2.62036 11.6682H24.3374C24.4973 11.6683 24.6507 11.7319 24.7638 11.845C24.8769 11.9581 24.9405 12.1115 24.9406 12.2714V13.4779ZM9.25612 8.04866C9.13682 8.04865 9.0202 8.01326 8.92101 7.94697C8.82182 7.88068 8.74452 7.78648 8.69886 7.67626C8.65321 7.56604 8.64127 7.44475 8.66454 7.32775C8.68781 7.21074 8.74525 7.10326 8.8296 7.01889L10.0361 5.81239C10.1499 5.7025 10.3023 5.6417 10.4604 5.64307C10.6186 5.64445 10.7699 5.70789 10.8817 5.81974C10.9936 5.93158 11.057 6.08289 11.0584 6.24106C11.0598 6.39923 10.999 6.55161 10.8891 6.66538L9.68259 7.87189C9.62666 7.92799 9.56018 7.97249 9.487 8.00283C9.41381 8.03317 9.33535 8.04875 9.25612 8.04866ZM16.4951 8.04866C16.3758 8.04865 16.2592 8.01326 16.16 7.94697C16.0608 7.88068 15.9835 7.78648 15.9379 7.67626C15.8922 7.56604 15.8803 7.44475 15.9035 7.32775C15.9268 7.21074 15.9843 7.10326 16.0686 7.01889L17.2751 5.81239C17.3889 5.7025 17.5413 5.6417 17.6994 5.64307C17.8576 5.64445 18.0089 5.70789 18.1208 5.81974C18.2326 5.93158 18.296 6.08289 18.2974 6.24106C18.2988 6.39923 18.238 6.55161 18.1281 6.66538L16.9216 7.87189C16.8657 7.92799 16.7992 7.97249 16.726 8.00283C16.6528 8.03317 16.5744 8.04875 16.4951 8.04866ZM26.1471 8.65192H24.9406C24.9401 8.1721 24.7493 7.71209 24.41 7.37281C24.0707 7.03352 23.6107 6.84269 23.1309 6.84216C22.8021 6.84325 22.48 6.93564 22.2007 7.10903C22.1026 7.16839 21.9897 7.19858 21.8751 7.19606C21.7605 7.19354 21.649 7.15841 21.5537 7.0948C21.4584 7.03118 21.3831 6.9417 21.3368 6.83686C21.2905 6.73202 21.2751 6.61615 21.2923 6.50283C21.3431 6.23094 21.3288 5.95087 21.2504 5.68558C21.1721 5.4203 21.032 5.17738 20.8416 4.97674C20.6512 4.7761 20.4159 4.62346 20.1551 4.53134C19.8943 4.43923 19.6153 4.41027 19.3411 4.44683C19.2127 4.46423 19.082 4.44602 18.9633 4.39418C18.8445 4.34234 18.7423 4.25886 18.6678 4.15287C18.5414 3.93996 18.3737 3.75454 18.1744 3.60758C17.9752 3.46062 17.7485 3.35511 17.5078 3.29727C17.267 3.23944 17.0172 3.23046 16.7729 3.27087C16.5286 3.31128 16.295 3.40025 16.0857 3.53253C16.0092 3.58427 15.9219 3.61776 15.8304 3.63041C15.7389 3.64307 15.6458 3.63456 15.5581 3.60553C15.4705 3.57651 15.3907 3.52775 15.3248 3.46301C15.259 3.39826 15.2089 3.31927 15.1784 3.23212C15.0574 2.87745 14.8285 2.56952 14.5237 2.35147C14.2189 2.13343 13.8536 2.01619 13.4788 2.01619C13.1041 2.01619 12.7387 2.13343 12.4339 2.35147C12.1292 2.56952 11.9002 2.87745 11.7792 3.23212C11.7488 3.31931 11.6987 3.39834 11.6329 3.46312C11.5671 3.52789 11.4872 3.57668 11.3995 3.60571C11.3119 3.63474 11.2187 3.64324 11.1272 3.63055C11.0357 3.61786 10.9484 3.58433 10.8719 3.53253C10.6627 3.40028 10.429 3.31133 10.1848 3.27094C9.94051 3.23054 9.69065 3.23953 9.44994 3.29736C9.20922 3.35519 8.98255 3.4607 8.78332 3.60764C8.58408 3.75459 8.41633 3.93998 8.28998 4.15287C8.23126 4.25794 8.1424 4.343 8.03488 4.39707C7.92735 4.45115 7.80608 4.47177 7.68673 4.45626C7.60728 4.44201 7.52699 4.43296 7.44637 4.42916C6.96655 4.42968 6.50654 4.62052 6.16726 4.9598C5.82798 5.29908 5.63714 5.7591 5.63661 6.23891C5.63937 6.32332 5.64842 6.40741 5.66371 6.49047C5.68127 6.60456 5.66612 6.72128 5.62004 6.82711C5.57395 6.93295 5.49881 7.02355 5.40333 7.08841C5.30893 7.15315 5.19799 7.18955 5.08359 7.19331C4.96918 7.19707 4.85609 7.16803 4.75765 7.10962C4.47802 6.93627 4.15586 6.8437 3.82686 6.84216C3.34705 6.84269 2.88703 7.03352 2.54775 7.37281C2.20847 7.71209 2.01763 8.1721 2.01711 8.65192H0.810608C0.811547 7.85224 1.12963 7.08559 1.69509 6.52014C2.26054 5.95468 3.02719 5.6366 3.82686 5.63566C4.04553 5.63574 4.2635 5.66043 4.47665 5.70926C4.60187 5.01251 4.9678 4.38187 5.51057 3.9274C6.05333 3.47294 6.73846 3.22351 7.44637 3.22266H7.45932C7.85835 2.70839 8.41013 2.33385 9.03537 2.15284C9.66061 1.97183 10.3271 1.99367 10.9392 2.21523C11.2088 1.78499 11.5833 1.4303 12.0275 1.18443C12.4717 0.938557 12.9711 0.80957 13.4789 0.80957C13.9866 0.80957 14.486 0.938557 14.9302 1.18443C15.3745 1.4303 15.749 1.78499 16.0186 2.21523C16.6306 1.99379 17.2971 1.972 17.9223 2.153C18.5476 2.33401 19.0993 2.70848 19.4984 3.22266H19.5114C20.2193 3.22351 20.9044 3.47294 21.4472 3.9274C21.99 4.38187 22.3559 5.01251 22.4811 5.70926C22.6942 5.6604 22.9122 5.63571 23.1309 5.63566C23.9306 5.6366 24.6972 5.95468 25.2627 6.52014C25.8281 7.08559 26.1462 7.85224 26.1471 8.65192Z" fill="#9DC471"/>
</svg>
