<svg width="26" height="26" viewBox="0 0 26 26" fill="none" xmlns="http://www.w3.org/2000/svg">
<path d="M15.2163 5.37027C10.77 5.37027 10.0167 3.36088 9.35271 1.58845C9.2785 1.34795 9.13102 1.13663 8.93086 0.984032C8.73071 0.831432 8.48788 0.745172 8.23631 0.737305H8.2103C7.95082 0.754449 7.70331 0.852739 7.50277 1.01827C7.30222 1.1838 7.1588 1.4082 7.09278 1.65972L5.70493 5.97996C5.40825 6.90392 5.30634 7.87934 5.40562 8.84467C5.5049 9.80999 5.80321 10.7443 6.28173 11.5885C6.90573 12.645 7.72795 13.571 8.7032 14.3156C4.40494 13.6305 1.89652 11.9837 1.89652 10.5824C1.89652 9.86185 2.52245 9.11512 3.65432 8.45852C3.63634 8.05048 3.64593 7.64169 3.68302 7.23495C3.5726 7.22105 3.46055 7.24052 3.36129 7.29087C1.19298 8.44516 0.738281 9.71764 0.738281 10.5824V19.8483C0.738281 22.771 6.08044 25.0604 12.8998 25.0604C19.7192 25.0604 25.0614 22.771 25.0614 19.8483V10.5824C25.0614 7.31859 21.3808 5.37027 15.2163 5.37027ZM23.9031 19.8483C23.9031 21.7655 19.3844 23.9021 12.8998 23.9021C6.41525 23.9021 1.89652 21.7655 1.89652 19.8483V12.8424C3.48795 14.3013 6.60619 15.3803 10.5352 15.6998L10.5358 15.7C11.3061 15.7628 12.1013 15.7945 12.8998 15.7945C17.8315 15.7945 21.9784 14.594 23.9031 12.8256L23.9031 19.8483ZM12.8998 14.6362C11.7254 14.5742 10.5878 14.205 9.60068 13.5656C8.61361 12.9261 7.81162 12.0388 7.27488 10.9924C6.87951 10.2903 6.63379 9.5139 6.5532 8.71216C6.47261 7.91042 6.55889 7.10068 6.80661 6.33393L8.19446 2.01369C8.20917 1.97014 8.22501 1.94072 8.23179 1.92094C8.24668 1.94375 8.25883 1.96825 8.26799 1.9939C9.12761 4.28838 10.373 6.52851 15.2163 6.52851C20.5743 6.52851 23.9031 8.08208 23.9031 10.5824C23.9031 12.4996 19.3844 14.6362 12.8998 14.6362ZM10.0042 19.8483C10.0042 20.421 10.174 20.9808 10.4922 21.457C10.8104 21.9332 11.2626 22.3043 11.7917 22.5235C12.3208 22.7426 12.903 22.8 13.4647 22.6883C14.0264 22.5765 14.5424 22.3008 14.9473 21.8958C15.3523 21.4908 15.6281 20.9749 15.7398 20.4132C15.8515 19.8515 15.7942 19.2693 15.575 18.7402C15.3558 18.2111 14.9847 17.7589 14.5085 17.4407C14.0324 17.1225 13.4725 16.9527 12.8998 16.9527C12.1321 16.9535 11.3961 17.2588 10.8532 17.8017C10.3104 18.3445 10.005 19.0806 10.0042 19.8483ZM14.6372 19.8483C14.6372 20.1919 14.5353 20.5278 14.3444 20.8135C14.1535 21.0992 13.8821 21.3219 13.5647 21.4534C13.2472 21.5849 12.8979 21.6193 12.5609 21.5523C12.2239 21.4852 11.9143 21.3198 11.6713 21.0768C11.4283 20.8338 11.2629 20.5243 11.1958 20.1872C11.1288 19.8502 11.1632 19.5009 11.2947 19.1834C11.4262 18.866 11.6489 18.5946 11.9346 18.4037C12.2203 18.2128 12.5562 18.1109 12.8998 18.1109C13.3604 18.1114 13.8021 18.2946 14.1278 18.6203C14.4535 18.9461 14.6367 19.3877 14.6372 19.8483Z" fill="#9DC471"/>
</svg>
