<svg width="60" height="60" viewBox="0 0 60 60" fill="none" xmlns="http://www.w3.org/2000/svg">
<path d="M53.6842 6.66667H3.15789V0H53.6842V6.66667ZM35.6842 26.6667C33.1579 29.8667 31.5789 33.9333 31.5789 38.3333C31.5789 42.1333 32.9368 46.2 34.7368 50V53.3333H3.15789V33.3333H0V26.6667L3.15789 10H53.6842L55.8947 21.6667C53.8105 20.6 51.5368 20 49.1368 20L48.5053 16.6667H8.33684L6.44211 26.6667H35.6842ZM28.4211 33.3333H9.47368V46.6667H28.4211V33.3333ZM60 38.3333C60 47 48.9474 60 48.9474 60C48.9474 60 37.8947 47 37.8947 38.3333C37.8947 32 42.9474 26.6667 48.9474 26.6667C54.9474 26.6667 60 32 60 38.3333ZM52.7368 38.6667C52.7368 36.6667 50.8421 34.6667 48.9474 34.6667C47.0526 34.6667 45.1579 36.3333 45.1579 38.6667C45.1579 40.6667 46.7368 42.6667 48.9474 42.6667C51.1579 42.6667 53.0526 40.6667 52.7368 38.6667Z" fill="#9DC471"/>
</svg>
