<svg width="25" height="25" viewBox="0 0 25 25" fill="none" xmlns="http://www.w3.org/2000/svg">
<path d="M10.4458 15.6253H4.80729L0 4.16695H15.625L15.0375 6.25029H3.13333L6.19375 13.542H8.98333L10.4458 15.6253ZM18.3042 9.95966L20.1333 4.16695H22.1427L22.9167 2.08362H18.5469L15.9542 10.3951L18.3042 9.95966ZM7.8125 16.667C6.95 16.667 6.25 17.367 6.25 18.2295C6.25 19.093 6.95 19.792 7.8125 19.792C8.675 19.792 9.375 19.093 9.375 18.2295C9.375 17.367 8.675 16.667 7.8125 16.667ZM22.4073 13.069C23.9073 15.1711 23.4917 16.6513 25 18.768L19.1823 22.917C16.0417 20.5774 13.3312 19.8274 12.4552 19.5336C11.6208 19.2524 11.0833 18.718 11.2677 18.0461C11.4563 17.367 12.1656 17.1649 12.751 17.1909C13.6344 17.2315 14.351 17.4961 14.351 17.4961L10.2927 11.8076C9.93021 11.2992 10.049 10.594 10.5573 10.2326C11.0635 9.87008 11.7687 9.98883 12.1312 10.4961L14.8802 14.343C15.0125 14.5284 15.2698 14.5722 15.4563 14.4399C15.6427 14.3076 15.6854 14.0492 15.5531 13.8638L14.876 12.9138L15.9667 12.642C16.2521 12.5722 16.5521 12.6836 16.7229 12.9232L17.2771 13.7003C17.4094 13.8867 17.6667 13.9295 17.8531 13.7972C18.0396 13.6649 18.0823 13.4065 17.95 13.2201L17.3104 12.3232L18.3802 12.0836C18.6615 12.0232 18.951 12.1357 19.1177 12.369L19.5885 13.0295C19.7208 13.2149 19.9792 13.2576 20.1646 13.1263C20.351 12.994 20.3937 12.7357 20.2615 12.5503L19.7333 11.8107L20.049 11.7545C21.1448 11.5607 21.7396 12.1326 22.4073 13.069ZM9.90104 9.32216C10.6052 8.82008 11.5156 8.80341 12.1937 9.32424C11.8073 8.03049 10.2604 7.49716 9.15938 8.28258C8.05625 9.07008 8.06146 10.7055 9.15625 11.4899C8.88437 10.6795 9.19687 9.82424 9.90104 9.32216Z" fill="#9DC471"/>
</svg>
