<svg width="26" height="23" viewBox="0 0 26 23" fill="none" xmlns="http://www.w3.org/2000/svg">
<path d="M23.1209 10.3366C23.2163 10.2446 23.3053 10.1461 23.3873 10.042C23.6472 9.68105 23.8152 9.26218 23.8767 8.82168C23.9382 8.38118 23.8913 7.93232 23.7402 7.514C23.0074 5.55491 21.6893 3.86886 19.965 2.68486C18.2407 1.50085 16.1938 0.876276 14.1022 0.89596H11.6975C9.60592 0.876267 7.55896 1.50084 5.83465 2.68485C4.11035 3.86885 2.79226 5.55491 2.05943 7.514C1.90832 7.93232 1.86148 8.38118 1.92297 8.82168C1.98447 9.26218 2.15244 9.68105 2.41234 10.042C2.4943 10.1462 2.58331 10.2446 2.67873 10.3366C2.11293 10.5315 1.62197 10.898 1.27418 11.385C0.92639 11.8721 0.739069 12.4554 0.738284 13.0538C0.737499 13.6523 0.923289 14.2361 1.2698 14.724C1.61631 15.2119 2.10631 15.5797 2.6716 15.7762C2.50976 15.9464 2.36879 16.1352 2.25168 16.3388C2.00504 16.7795 1.88266 17.2789 1.8976 17.7836C1.91254 18.2884 2.06424 18.7797 2.3365 19.205C3.07871 20.348 4.09664 21.2857 5.2965 21.9319C6.49635 22.5781 7.83955 22.9119 9.20231 22.9026H16.5974C17.9602 22.9119 19.3033 22.5781 20.5032 21.9319C21.703 21.2857 22.721 20.3479 23.4632 19.205C23.7354 18.7797 23.8871 18.2884 23.9021 17.7836C23.917 17.2789 23.7946 16.7795 23.548 16.3388C23.4309 16.1352 23.2899 15.9464 23.1281 15.7762C23.6934 15.5797 24.1834 15.2119 24.5299 14.724C24.8764 14.2361 25.0622 13.6523 25.0614 13.0538C25.0606 12.4554 24.8733 11.8721 24.5255 11.385C24.1777 10.898 23.6867 10.5315 23.1209 10.3366ZM3.14978 7.90536C3.80158 6.17057 4.97156 4.67844 6.50079 3.63163C8.03003 2.58483 9.8444 2.03408 11.6975 2.0542H14.1022C15.9553 2.03408 17.7697 2.58483 19.2989 3.63163C20.8282 4.67844 21.9981 6.17057 22.6499 7.90536C22.7372 8.14891 22.7637 8.41005 22.7272 8.66616C22.6907 8.92228 22.5924 9.16564 22.4407 9.37517C22.2656 9.61999 22.0343 9.8192 21.7662 9.95609C21.4981 10.093 21.2011 10.1635 20.9001 10.1618H4.89961C4.59863 10.1635 4.30163 10.093 4.03356 9.95611C3.76549 9.81923 3.53419 9.62002 3.35907 9.37522C3.20734 9.16568 3.10897 8.92231 3.0725 8.66619C3.03603 8.41007 3.06256 8.14892 3.14978 7.90536ZM22.4813 18.5897C21.8441 19.5671 20.9712 20.3683 19.9429 20.9196C18.9146 21.4709 17.7641 21.7545 16.5974 21.7443H9.20231C8.03561 21.7545 6.8851 21.4709 5.85682 20.9196C4.82853 20.3683 3.95556 19.5671 3.31835 18.5897C3.15506 18.34 3.06371 18.0501 3.05434 17.7519C3.04496 17.4537 3.11791 17.1587 3.26518 16.8993C3.43276 16.6048 3.67705 16.3613 3.97203 16.1947C4.26702 16.0281 4.60166 15.9446 4.94034 15.9531H20.8594C21.1981 15.9446 21.5327 16.0281 21.8277 16.1947C22.1227 16.3613 22.3669 16.6048 22.5345 16.8993C22.6818 17.1587 22.7548 17.4537 22.7454 17.7519C22.736 18.0501 22.6447 18.34 22.4814 18.5897H22.4813ZM22.1658 14.7949H3.63392C3.17314 14.7949 2.73124 14.6118 2.40542 14.286C2.0796 13.9602 1.89656 13.5183 1.89656 13.0575C1.89656 12.5967 2.0796 12.1548 2.40542 11.829C2.73124 11.5032 3.17314 11.3201 3.63392 11.3201H22.1658C22.6266 11.3201 23.0685 11.5032 23.3943 11.829C23.7201 12.1548 23.9032 12.5967 23.9032 13.0575C23.9032 13.5183 23.7201 13.9602 23.3943 14.286C23.0685 14.6118 22.6266 14.7949 22.1658 14.7949ZM12.3207 5.52893C12.3207 5.41439 12.3547 5.30242 12.4183 5.20718C12.482 5.11195 12.5724 5.03772 12.6782 4.99389C12.7841 4.95006 12.9005 4.93859 13.0128 4.96093C13.1252 4.98328 13.2284 5.03843 13.3094 5.11943C13.3903 5.20042 13.4455 5.30361 13.4678 5.41595C13.4902 5.52828 13.4787 5.64473 13.4349 5.75055C13.3911 5.85637 13.3168 5.94681 13.2216 6.01045C13.1264 6.07408 13.0144 6.10805 12.8999 6.10805C12.7463 6.10805 12.599 6.04703 12.4904 5.93843C12.3817 5.82982 12.3207 5.68252 12.3207 5.52893ZM7.10865 6.68717C7.10865 6.57263 7.14261 6.46066 7.20625 6.36543C7.26988 6.27019 7.36033 6.19596 7.46615 6.15213C7.57197 6.1083 7.68841 6.09683 7.80075 6.11917C7.91309 6.14152 8.01628 6.19668 8.09727 6.27767C8.17826 6.35866 8.23342 6.46185 8.25576 6.57419C8.27811 6.68653 8.26664 6.80297 8.22281 6.90879C8.17897 7.01461 8.10475 7.10505 8.00951 7.16869C7.91427 7.23232 7.80231 7.26629 7.68777 7.26629C7.53418 7.26629 7.38687 7.20527 7.27827 7.09667C7.16966 6.98806 7.10865 6.84076 7.10865 6.68717ZM17.5328 6.68717C17.5328 6.57263 17.5668 6.46066 17.6304 6.36543C17.6941 6.27019 17.7845 6.19596 17.8903 6.15213C17.9961 6.1083 18.1126 6.09683 18.2249 6.11917C18.3373 6.14152 18.4405 6.19668 18.5214 6.27767C18.6024 6.35866 18.6576 6.46185 18.6799 6.57419C18.7023 6.68653 18.6908 6.80297 18.647 6.90879C18.6031 7.01461 18.5289 7.10505 18.4337 7.16869C18.3384 7.23232 18.2265 7.26629 18.1119 7.26629C17.9584 7.26629 17.8111 7.20527 17.7024 7.09667C17.5938 6.98806 17.5328 6.84076 17.5328 6.68717Z" fill="#9DC471"/>
</svg>
