<svg width="11" height="11" viewBox="0 0 11 11" fill="none" xmlns="http://www.w3.org/2000/svg">
<path d="M5.5 0.916667C8.02725 0.916667 10.0833 2.97275 10.0833 5.5C10.0833 8.02725 8.02725 10.0833 5.5 10.0833C2.97275 10.0833 0.916667 8.02725 0.916667 5.5C0.916667 2.97275 2.97275 0.916667 5.5 0.916667ZM5.5 0C2.46263 0 0 2.46263 0 5.5C0 8.53738 2.46263 11 5.5 11C8.53738 11 11 8.53738 11 5.5C11 2.46263 8.53738 0 5.5 0ZM8.25 2.74954L5.67371 4.11812C5.26167 4.07046 4.84596 4.20567 4.53979 4.51183C4.23637 4.81571 4.10438 5.22729 4.14471 5.62467L2.75 8.25L5.3735 6.85575C5.77867 6.89654 6.18567 6.76179 6.48817 6.45929C6.77875 6.16871 6.93229 5.76079 6.88188 5.32583L8.25 2.74954ZM5.51375 6.05871C5.19796 6.05871 4.94083 5.8025 4.94083 5.48625C4.94037 5.16954 5.19704 4.91288 5.51375 4.91333C5.83 4.91333 6.08667 5.17 6.08667 5.48625C6.08621 5.80204 5.83 6.05871 5.51375 6.05871Z" fill="#9DC471"/>
</svg>
