<svg width="14" height="12" viewBox="0 0 14 12" fill="none" xmlns="http://www.w3.org/2000/svg">
<path fill-rule="evenodd" clip-rule="evenodd" d="M1.43858 6.12308C0.763423 5.45047 0.384277 4.5414 0.384277 3.59358C0.384277 2.6405 0.767413 1.72618 1.44989 1.05226C2.13236 0.378341 3.05829 0 4.02346 0C4.98864 0 5.91457 0.378341 6.59704 1.05226L6.84581 1.29792L7.09459 1.05226C7.77707 0.378341 8.70232 0 9.6675 0C10.6333 0 11.5586 0.378341 12.2411 1.05226C12.9235 1.72618 13.3074 2.6405 13.3074 3.59358C13.3074 4.5414 12.9282 5.45047 12.2524 6.12308L7.31543 11.2852C7.1937 11.4126 7.02341 11.4849 6.84581 11.4849C6.66821 11.4849 6.49793 11.4126 6.3762 11.2852L1.43858 6.12308ZM6.84581 9.91765L11.3145 5.24553L11.3278 5.2324C11.7675 4.79757 12.0149 4.20838 12.0149 3.59358C12.0149 2.97877 11.7675 2.38959 11.3278 1.95476C10.8874 1.51993 10.2901 1.27558 9.6675 1.27558C9.04556 1.27558 8.44823 1.51993 8.00788 1.95476L7.3028 2.65167C7.05003 2.90061 6.64094 2.90061 6.38883 2.65167L5.68308 1.95476C5.2434 1.51993 4.64607 1.27558 4.02346 1.27558C3.40086 1.27558 2.80419 1.51993 2.36385 1.95476C1.9235 2.38959 1.67671 2.97877 1.67671 3.59358C1.67671 4.20838 1.9235 4.79757 2.36385 5.2324C2.3685 5.23699 2.37249 5.24093 2.37648 5.24553L6.84581 9.91765Z" fill="white"/>
</svg>
