<svg width="7" height="9" viewBox="0 0 7 9" fill="none" xmlns="http://www.w3.org/2000/svg">
<path d="M3.49999 0C1.57007 0 0 1.51719 0 3.38208C0 6.38089 3.14935 8.74102 3.28343 8.84007L3.50001 9L3.71645 8.84007C3.85054 8.741 7 6.38089 7 3.38208C6.99998 1.51717 5.42993 0 3.49999 0ZM3.49973 8.11927C2.80993 7.54568 0.713117 5.61754 0.713117 3.38208C0.713117 1.89712 1.96313 0.689093 3.49999 0.689093C5.03657 0.689093 6.28686 1.89715 6.28686 3.38208C6.28688 5.61275 4.18923 7.54478 3.49973 8.11927Z" fill="#6D6762"/>
<path d="M3.56268 5.06246C2.60518 5.06246 1.82617 4.31137 1.82617 3.38811C1.82617 2.46481 2.60516 1.71362 3.56268 1.71362C4.52018 1.71362 5.29917 2.46479 5.29917 3.38811C5.29917 4.31137 4.52018 5.06246 3.56268 5.06246ZM3.56268 2.26278C2.91918 2.26278 2.39564 2.76762 2.39564 3.38814C2.39564 4.00858 2.91918 4.51335 3.56268 4.51335C4.20616 4.51335 4.7297 4.00858 4.7297 3.38814C4.7297 2.7676 4.20618 2.26278 3.56268 2.26278Z" fill="#6D6762"/>
</svg>
