<svg width="24" height="18" viewBox="0 0 24 18" fill="none" xmlns="http://www.w3.org/2000/svg">
<path fill-rule="evenodd" clip-rule="evenodd" d="M5 8V9H13V2H3V1C3 0.448 3.448 0 4 0H14C14.552 0 15 0.448 15 1V3H19.667C20.784 3 21.267 3.576 21.603 4.107C22.197 5.047 23.139 6.539 23.712 7.485C23.9 7.797 24 8.155 24 8.52V13C24 14.089 23.257 15 22 15H21C21 16.656 19.656 18 18 18C16.344 18 15 16.656 15 15H11C11 16.656 9.656 18 8 18C6.344 18 5 16.656 5 15H4C3.448 15 3 14.552 3 14V8H1V6H8V8H5ZM8 13.8C8.662 13.8 9.2 14.338 9.2 15C9.2 15.662 8.662 16.2 8 16.2C7.338 16.2 6.8 15.662 6.8 15C6.8 14.338 7.338 13.8 8 13.8ZM18 13.8C18.662 13.8 19.2 14.338 19.2 15C19.2 15.662 18.662 16.2 18 16.2C17.338 16.2 16.8 15.662 16.8 15C16.8 14.338 17.338 13.8 18 13.8ZM15 11H5V13H5.765C6.314 12.386 7.112 12 8 12C8.888 12 9.686 12.386 10.235 13H15.765C16.314 12.386 17.112 12 18 12C18.888 12 19.686 12.386 20.235 13H22V8.425L20.289 5.496C20.11 5.189 19.781 5 19.426 5H15V11ZM16 6V9H21L19.573 6.504C19.395 6.192 19.064 6 18.705 6H16ZM0 3H8V5H0V3Z" fill="white"/>
</svg>
